<svg width="13" height="14" viewBox="0 0 13 14" fill="none" xmlns="http://www.w3.org/2000/svg">
<path d="M6.12979 3.85547C4.39072 3.85547 2.98799 5.2582 2.98799 6.99727C2.98799 8.73633 4.39072 10.1391 6.12979 10.1391C7.86885 10.1391 9.27158 8.73633 9.27158 6.99727C9.27158 5.2582 7.86885 3.85547 6.12979 3.85547ZM6.12979 9.03984C5.00596 9.03984 4.08721 8.12383 4.08721 6.99727C4.08721 5.8707 5.00322 4.95469 6.12979 4.95469C7.25635 4.95469 8.17236 5.8707 8.17236 6.99727C8.17236 8.12383 7.25361 9.03984 6.12979 9.03984ZM10.1329 3.72695C10.1329 4.13437 9.80479 4.45977 9.4001 4.45977C8.99268 4.45977 8.66728 4.13164 8.66728 3.72695C8.66728 3.32227 8.99541 2.99414 9.4001 2.99414C9.80479 2.99414 10.1329 3.32227 10.1329 3.72695ZM12.2138 4.4707C12.1673 3.48906 11.9431 2.61953 11.2239 1.90312C10.5075 1.18672 9.63799 0.9625 8.65635 0.913281C7.64463 0.855859 4.61221 0.855859 3.60049 0.913281C2.62158 0.959765 1.75205 1.18398 1.03291 1.90039C0.31377 2.6168 0.0922852 3.48633 0.0430664 4.46797C-0.0143555 5.47969 -0.0143555 8.51211 0.0430664 9.52383C0.0895508 10.5055 0.31377 11.375 1.03291 12.0914C1.75205 12.8078 2.61885 13.032 3.60049 13.0812C4.61221 13.1387 7.64463 13.1387 8.65635 13.0812C9.63799 13.0348 10.5075 12.8105 11.2239 12.0914C11.9403 11.375 12.1646 10.5055 12.2138 9.52383C12.2712 8.51211 12.2712 5.48242 12.2138 4.4707ZM10.9067 10.6094C10.6935 11.1453 10.2806 11.5582 9.7419 11.7742C8.93526 12.0941 7.02119 12.0203 6.12979 12.0203C5.23838 12.0203 3.32158 12.0914 2.51768 11.7742C1.98174 11.5609 1.56885 11.148 1.35283 10.6094C1.03291 9.80273 1.10674 7.88867 1.10674 6.99727C1.10674 6.10586 1.03564 4.18906 1.35283 3.38516C1.56611 2.84922 1.979 2.43633 2.51768 2.22031C3.32432 1.90039 5.23838 1.97422 6.12979 1.97422C7.02119 1.97422 8.93799 1.90312 9.7419 2.22031C10.2778 2.43359 10.6907 2.84648 10.9067 3.38516C11.2267 4.1918 11.1528 6.10586 11.1528 6.99727C11.1528 7.88867 11.2267 9.80547 10.9067 10.6094Z" fill="#475569"/>
</svg>
