<svg xmlns="http://www.w3.org/2000/svg" width="64" height="64" viewBox="0 0 64 64" fill="none">
  <title>Schools</title>
  <defs><filter id="shadow" x="-20%" y="-20%" width="140%" height="150%"><feDropShadow dx="0" dy="1.5" stdDeviation="1.5" flood-color="#0F172A" flood-opacity=".10"/></filter></defs>
  <rect x="2" y="2" width="60" height="60" rx="15" fill="#FFFFFF" filter="url(#shadow)"/>
  <path d="M13 27.5 25 22v-3l7-4 7 4v3l12 5.5V48H39V37H25v11H13V27.5Z" fill="#D62828"/>
  <circle cx="32" cy="23" r="5.5" fill="#FFFFFF"/>
  <path d="M32 19.8V23l2.25 1.3" stroke="#D62828" stroke-width="1.8" stroke-linecap="round" stroke-linejoin="round"/>
  <rect x="17" y="31" width="4" height="6" rx="1" fill="#FFFFFF"/>
  <rect x="43" y="31" width="4" height="6" rx="1" fill="#FFFFFF"/>
  <rect x="17" y="40" width="4" height="6" rx="1" fill="#FFFFFF"/>
  <rect x="43" y="40" width="4" height="6" rx="1" fill="#FFFFFF"/>
  <rect x="29" y="40" width="6" height="8" rx="1.5" fill="#FFFFFF"/>
</svg>
